<svg xmlns="http://www.w3.org/2000/svg" viewBox="0 0 200 200">
    <g id="Calque_2" data-name="Calque 2">
        <g id="Calque_1-2" data-name="Calque 1">
            <path d="M147.87,100.4H150c15.6,5.34,31.17,10.77,46.82,15.93,3.17,1,3.75,2.21,2.62,5.47-2.58,7.42-4.85,15-7,22.53-.76,2.67-1.82,3.29-4.31,2.42C172.58,141.32,157,136,141.39,130.62L139,129.23c-6.6-4.49-9.85-11.84-14.11-18.31a2.74,2.74,0,0,1,1.35-4.34C133.34,104.1,140,100,147.87,100.4Z"
                  fill="#90579f"/>
            <path d="M147.87,99.72H150c15.6-5.34,31.17-10.77,46.82-15.93,3.17-1,3.75-2.22,2.62-5.47-2.58-7.42-4.85-15-7-22.53-.76-2.67-1.82-3.3-4.31-2.43C172.58,58.8,157,64.13,141.39,69.5L139,70.89c-6.6,4.48-9.85,11.83-14.11,18.3a2.74,2.74,0,0,0,1.35,4.34C133.34,96,140,100.12,147.87,99.72Z"
                  fill="#90579f"/>
            <path d="M52.13,100.72H50c-15.6,5.34-31.17,10.77-46.82,15.93-3.17,1-3.75,2.22-2.62,5.47,2.58,7.42,4.85,15,7,22.53.76,2.68,1.82,3.3,4.31,2.43C27.42,141.63,43,136.3,58.61,130.93L61,129.55c6.6-4.49,9.85-11.84,14.11-18.31a2.74,2.74,0,0,0-1.35-4.34C66.66,104.42,60,100.31,52.13,100.72Z"
                  fill="#90579f"/>
            <path d="M52.13,100H50C34.37,94.7,18.8,89.26,3.15,84.11,0,83.06-.6,81.89.53,78.63c2.58-7.41,4.85-15,7-22.52.76-2.68,1.82-3.3,4.31-2.43C27.42,59.11,43,64.44,58.61,69.81L61,71.2C67.6,75.69,70.85,83,75.11,89.51a2.74,2.74,0,0,1-1.35,4.34C66.66,96.33,60,100.43,52.13,100Z"
                  fill="#90579f"/>
            <path d="M115.24,146.16l.66,2.15c9.67,13.91,19.41,27.75,28.93,41.77,1.92,2.84,3.17,3,5.77.91,5.93-4.86,12.07-9.46,18.26-14,2.19-1.59,2.43-2.83.87-5-9.74-13.84-19.39-27.74-29.09-41.63l-2-2c-6.11-5.2-13.78-6.16-21-8.41a2.6,2.6,0,0,0-3.52,2.69C114.1,130.52,112.45,138.46,115.24,146.16Z"
                  fill="#66c3ca"/>
            <path d="M85.23,146.16l-.66,2.15c-9.67,13.91-19.41,27.75-28.93,41.77-1.92,2.84-3.17,3-5.77.91-5.93-4.86-12.07-9.46-18.26-14-2.19-1.59-2.44-2.83-.87-5,9.74-13.84,19.39-27.74,29.09-41.63l2-2c6.11-5.2,13.79-6.16,21-8.41a2.6,2.6,0,0,1,3.52,2.69C86.37,130.52,88,138.46,85.23,146.16Z"
                  fill="#e61f5e"/>
            <path d="M84.53,54.12,83.87,52C74.2,38.06,64.46,24.21,54.94,10.2c-1.92-2.84-3.17-3-5.77-.92-5.93,4.87-12.07,9.47-18.26,14-2.19,1.58-2.44,2.83-.87,5C39.78,42.12,49.43,56,59.13,69.92l2,2c6.11,5.2,13.79,6.17,21,8.42a2.6,2.6,0,0,0,3.52-2.7C85.67,69.75,87.32,61.82,84.53,54.12Z"
                  fill="#66c3ca"/>
            <path d="M114.54,54.12,115.2,52c9.67-13.91,19.41-27.76,28.93-41.77,2.18-3.22,3.49-3.06,6.89.07a114.65,114.65,0,0,0,16.23,12.35c3,1.91,3.54,3.17,1.78,5.66q-14.34,20.38-28.55,40.87l-1.39,1.68C132.81,77,124.62,77.9,117,80.29a2.6,2.6,0,0,1-3.52-2.7C113.4,69.75,111.75,61.82,114.54,54.12Z"
                  fill="#e61f5e"/>
            <path d="M85.87,58.08c-.22-.72-.44-1.44-.67-2.15,0-17.21.1-34.41-.08-51.62C85.09.83,86-.11,89.27,0c7.53.27,15.07.2,22.6,0,2.66-.07,3.56.78,3.54,3.54-.1,17.2-.1,34.4-.13,51.61-.17,1-.34,1.88-.52,2.82-2,8-7.67,13.49-12.22,19.74a2.5,2.5,0,0,1-4.35,0C93.74,71.42,87.94,66,85.87,58.08Z"
                  fill="#1db7ec"/>
            <path d="M114.65,141.92c.23.72.45,1.44.68,2.15,0,17.21-.1,34.41.08,51.62,0,3.48-.85,4.42-4.15,4.3-7.53-.27-15.07-.2-22.6,0-2.66.07-3.56-.78-3.54-3.54.1-17.2.1-34.4.13-51.61.17-1,.34-1.88.52-2.82,2-8,7.67-13.49,12.22-19.74a2.5,2.5,0,0,1,4.35,0C106.79,128.58,112.59,134,114.65,141.92Z"
                  fill="#1db7ec"/>
        </g>
    </g>
</svg>